<?xml version="1.0" standalone="no"?><!DOCTYPE svg PUBLIC "-//W3C//DTD SVG 1.1//EN" "http://www.w3.org/Graphics/SVG/1.1/DTD/svg11.dtd"><svg t="1621090147645" class="icon" viewBox="0 0 1024 1024" version="1.1" xmlns="http://www.w3.org/2000/svg" p-id="4058" xmlns:xlink="http://www.w3.org/1999/xlink" width="200" height="200"><defs><style type="text/css"></style></defs><path d="M246.153846 186.210462C197.238154 186.210462 157.538462 225.831385 157.538462 274.668308v29.538461h708.923076v-29.538461c0-48.836923-39.699692-88.457846-88.615384-88.457846h-531.692308z m389.907692 34.107076h-248.123076l12.996923-93.184h222.12923l12.996923 93.184zM393.846154 68.135385c-24.418462 0-47.025231 19.692308-50.412308 43.874461L326.104615 235.52a37.572923 37.572923 0 0 0 38.203077 43.795692h295.384616c24.418462 0 41.590154-19.692308 38.203077-43.874461l-17.329231-123.431385A52.539077 52.539077 0 0 0 630.153846 68.135385H393.846154zM231.424 363.204923a53.090462 53.090462 0 0 0-53.799385 58.761846l48.443077 531.692308c2.914462 32.295385 31.901538 58.683077 64.433231 58.683077h443.076923c32.452923 0 61.44-26.387692 64.354462-58.761846l48.443077-531.613539a53.090462 53.090462 0 0 0-53.720616-58.761846H231.424zM393.846154 894.345846H305.230769L275.692308 481.28H393.846154v413.065846z m59.076923 0V481.28h118.153846v413.065846h-118.153846z m177.230769 0V481.28h118.153846l-29.538461 413.065846H630.153846z" fill="#d81e06" p-id="4059"></path></svg>