<?xml version="1.0" standalone="no"?><!DOCTYPE svg PUBLIC "-//W3C//DTD SVG 1.1//EN" "http://www.w3.org/Graphics/SVG/1.1/DTD/svg11.dtd"><svg t="1620924902598" class="icon" viewBox="0 0 1024 1024" version="1.1" xmlns="http://www.w3.org/2000/svg" p-id="2496" xmlns:xlink="http://www.w3.org/1999/xlink" width="200" height="200"><defs><style type="text/css"></style></defs><path d="M846.134 16.515h-668.267c-84.347 0-153.003 67.176-153.002 149.703v703.751c0 82.532 68.616 149.666 153.003 149.666h569.932c15.884 0 28.772-12.851 28.772-28.771 0-15.925-12.851-28.778-28.772-28.778h-569.932c-52.654 0-95.456-41.355-95.456-92.155v-703.715c0-50.835 42.836-92.155 95.456-92.155h668.267c52.653 0 95.454 41.355 95.454 92.155v703.751c0 50.799-42.836 92.159-95.454 92.159-15.884 0-28.772 12.851-28.772 28.772 0 15.925 12.851 28.778 28.772 28.778 84.352 0 153.002-67.176 153.002-149.667v-703.792c0-82.526-68.65-149.703-153.002-149.703v0zM755.151 215.464c0-15.884-12.849-28.777-28.776-28.777h-519.927c-15.884 0-28.772 12.892-28.771 28.777 0 15.884 12.887 28.771 28.772 28.771h519.927c15.884 0 28.776-12.851 28.776-28.771v0zM206.449 416.837h390.126c15.884 0 28.776-12.887 28.776-28.771s-12.851-28.776-28.776-28.777h-390.126c-15.884 0-28.772 12.892-28.771 28.777 0.035 15.884 12.887 28.771 28.772 28.771v0zM206.449 589.403h481.865c15.886 0 28.778-12.851 28.778-28.778 0-15.884-12.851-28.771-28.778-28.771h-481.865c-15.884 0-28.771 12.887-28.772 28.771 0.035 15.926 12.887 28.779 28.772 28.778v0zM206.449 589.403z" fill="#272636" p-id="2497"></path></svg>