<?xml version="1.0" standalone="no"?><!DOCTYPE svg PUBLIC "-//W3C//DTD SVG 1.1//EN" "http://www.w3.org/Graphics/SVG/1.1/DTD/svg11.dtd"><svg t="1621583520861" class="icon" viewBox="0 0 1024 1024" version="1.1" xmlns="http://www.w3.org/2000/svg" p-id="5429" width="16" height="16" xmlns:xlink="http://www.w3.org/1999/xlink"><defs><style type="text/css"></style></defs><path d="M938.667 853.333H85.333C38.272 853.333 0 815.061 0 768V256c0-47.061 38.272-85.333 85.333-85.333h853.334c47.061 0 85.333 38.272 85.333 85.333v512c0 47.061-38.272 85.333-85.333 85.333z m-853.334-640c-23.53 0-42.666 19.136-42.666 42.667v512c0 23.53 19.136 42.667 42.666 42.667h853.334c23.53 0 42.666-19.136 42.666-42.667V256c0-23.53-19.136-42.667-42.666-42.667H85.333z" p-id="5430" fill="#707070"></path><path d="M512 622.741L137.75 380.587c-9.9-6.422-12.737-19.606-6.337-29.504s19.606-12.715 29.504-6.336L512 571.925l351.083-227.178c9.898-6.379 23.104-3.563 29.504 6.336s3.562 23.082-6.336 29.504L512 622.74zM128.021 725.333c-6.89 0-13.674-3.328-17.77-9.493-6.55-9.813-3.904-23.04 5.909-29.59l192-128c9.813-6.549 23.061-3.903 29.59 5.91 6.549 9.813 3.903 23.04-5.91 29.59l-192 128c-3.648 2.41-7.765 3.583-11.819 3.583zM895.979 725.333c-4.054 0-8.171-1.173-11.819-3.584l-192-128c-9.813-6.549-12.459-19.776-5.91-29.589 6.529-9.813 19.755-12.459 29.59-5.91l192 128c9.813 6.55 12.459 19.777 5.91 29.59-4.097 6.165-10.88 9.493-17.771 9.493z" p-id="5431" fill="#707070"></path></svg>