<?xml version="1.0" standalone="no"?><!DOCTYPE svg PUBLIC "-//W3C//DTD SVG 1.1//EN" "http://www.w3.org/Graphics/SVG/1.1/DTD/svg11.dtd"><svg t="1620890133130" class="icon" viewBox="0 0 1802 1024" version="1.1" xmlns="http://www.w3.org/2000/svg" p-id="1972" width="351.953125" height="200" xmlns:xlink="http://www.w3.org/1999/xlink"><defs><style type="text/css"></style></defs><path d="M1700.40279 0a81.92 81.92 0 0 1 81.92 81.92v327.68a327.68 327.68 0 0 1-327.68 327.68L300.26711 737.23904l128.28672 127.95904 0.04096 0.04096 4.83328 5.24288c25.55904 30.35136 25.55904 74.9568 0 105.2672l-4.79232 5.24288a81.92 81.92 0 0 1-110.63296 4.9152l-5.20192-4.79232-288.68608-287.9488-0.08192-0.04096A81.83808 81.83808 0 0 1 8.22231 599.53152c3.93216-8.35584 9.37984-16.1792 16.26112-23.10144H24.60631l288.1536-287.70304a81.96096 81.96096 0 0 1 115.87584 0.04096 81.87904 81.87904 0 0 1-0.04096 115.83488L259.38903 573.44h1195.25376a163.84 163.84 0 0 0 163.6352-155.648l0.2048-8.192V81.92l0.24576-6.144A81.92 81.92 0 0 1 1700.40279 0z" p-id="1973" fill="#cdcdcd"></path></svg>