<?xml version="1.0" encoding="utf-8"?>
<!-- Generator: Adobe Illustrator 23.0.2, SVG Export Plug-In . SVG Version: 6.00 Build 0)  -->
<svg version="1.0" id="图层_1" xmlns="http://www.w3.org/2000/svg" xmlns:xlink="http://www.w3.org/1999/xlink" x="0px" y="0px"
	 viewBox="0 0 100 100" style="enable-background:new 0 0 100 100;" xml:space="preserve">
<style type="text/css">
	.st0{fill:#573068;}
	.st1{fill:url(#SVGID_1_);}
	.st2{fill:url(#SVGID_2_);}
	.st3{fill:url(#SVGID_3_);}
	.st4{fill:#874890;}
	.st5{fill:url(#SVGID_4_);}
	.st6{fill:#D72B5F;}
	.st7{fill:#C2367F;}
</style>
<ellipse class="st0" cx="51.1" cy="51.4" rx="26.7" ry="27"/>
<g>
	<linearGradient id="SVGID_1_" gradientUnits="userSpaceOnUse" x1="26.4178" y1="63.4803" x2="64.447" y2="25.4511">
		<stop  offset="0.2471" style="stop-color:#F4D723"/>
		<stop  offset="0.3074" style="stop-color:#F3D329"/>
		<stop  offset="0.3868" style="stop-color:#EFC735"/>
		<stop  offset="0.477" style="stop-color:#E9B342"/>
		<stop  offset="0.5751" style="stop-color:#E1964C"/>
		<stop  offset="0.6786" style="stop-color:#D76E51"/>
		<stop  offset="0.7126" style="stop-color:#D35E52"/>
		<stop  offset="0.9136" style="stop-color:#CE4853"/>
		<stop  offset="1" style="stop-color:#CE4453"/>
	</linearGradient>
	<path class="st1" d="M52.2,39.9c0.7,1.7-0.7,2.8-0.7,2.8l-16.2,7c0,0-1.9,0.9-1.2,3c0.7,2.1,2.8,1.5,2.8,1.5l37.1-14.6
		c-2.4-4.5-6-8.2-10.5-10.6l-11.7,4.5c0,0-1.9,0.7-2.4-1.1c-0.7-1.6,1.4-2.3,1.4-2.3l7.7-3.1c-2.3-0.7-4.7-1-7.2-1
		c-9.8,0-18.3,5.5-22.6,13.5l3.4-1.4l3.9-1.6c0,0,1.8-0.7,2.4,0.7c0.6,1.4-1.2,2.5-1.2,2.5L26.7,44c-0.5,1.7-0.8,3.4-1,5.2l24-10.4
		C49.7,38.8,51.4,38.2,52.2,39.9z"/>
	
		<linearGradient id="SVGID_2_" gradientUnits="userSpaceOnUse" x1="20.2423" y1="28.8424" x2="354.8488" y2="222.0275" gradientTransform="matrix(1.0595 -2.506358e-02 2.543970e-02 1.0754 -50.6055 -10.6925)">
		<stop  offset="9.633464e-02" style="stop-color:#D35E52"/>
		<stop  offset="0.2178" style="stop-color:#F4D723"/>
	</linearGradient>
	<path class="st2" d="M57.5,53.3c-1-1.8-3.2-1.1-3.2-1.1L28.2,63c0.8,1.6,1.7,3,2.8,4.4L56.4,57C56.4,57,58.4,55.1,57.5,53.3z"/>
	
		<linearGradient id="SVGID_3_" gradientUnits="userSpaceOnUse" x1="97.804" y1="182.7363" x2="128.8351" y2="151.7052" gradientTransform="matrix(1.1413 9.853880e-02 -9.698389e-02 1.1233 -60.9141 -129.3048)">
		<stop  offset="0.1639" style="stop-color:#BDD28B"/>
		<stop  offset="0.3817" style="stop-color:#F4D723"/>
		<stop  offset="0.4245" style="stop-color:#F3D329"/>
		<stop  offset="0.481" style="stop-color:#EFC735"/>
		<stop  offset="0.5451" style="stop-color:#E9B342"/>
		<stop  offset="0.6149" style="stop-color:#E1964C"/>
		<stop  offset="0.6884" style="stop-color:#D76E51"/>
		<stop  offset="0.7126" style="stop-color:#D35E52"/>
		<stop  offset="0.9136" style="stop-color:#CE4853"/>
		<stop  offset="1" style="stop-color:#CE4453"/>
	</linearGradient>
	<path class="st3" d="M68.4,68.4L54.2,74c0,0-2,0.8-2.6-1.2c-0.6-2,1.2-3,1.2-3L71.2,62c0,0,1.9-1.6,1.3-3.6c-0.6-2-3.1-1.7-3.1-1.7
		L33.9,70.5c4.6,4.2,10.6,6.7,17.3,6.7c7.6,0,14.4-3.3,19.1-8.5C69.5,68,68.4,68.4,68.4,68.4z"/>
	<path class="st4" d="M38.4,37c-0.6-1.4-2.4-0.7-2.4-0.7L32,37.9l-3.4,1.4l-2,4.7l10.5-4.5C37.2,39.5,39,38.4,38.4,37z"/>
	<linearGradient id="SVGID_4_" gradientUnits="userSpaceOnUse" x1="75.8918" y1="42.8475" x2="31.409" y2="68.5296">
		<stop  offset="1.727767e-02" style="stop-color:#B02C80"/>
		<stop  offset="6.860960e-02" style="stop-color:#AE3282"/>
		<stop  offset="0.1294" style="stop-color:#A94287"/>
		<stop  offset="0.1951" style="stop-color:#9E568F"/>
		<stop  offset="0.2641" style="stop-color:#8C6C99"/>
		<stop  offset="0.3351" style="stop-color:#6F82A6"/>
		<stop  offset="0.3733" style="stop-color:#568DAC"/>
		<stop  offset="0.4757" style="stop-color:#5088AC"/>
		<stop  offset="0.6079" style="stop-color:#3D7CAA"/>
		<stop  offset="0.6681" style="stop-color:#4380AA"/>
		<stop  offset="0.7442" style="stop-color:#548CAB"/>
		<stop  offset="0.8287" style="stop-color:#6DA0AB"/>
		<stop  offset="0.9131" style="stop-color:#8CBBA7"/>
	</linearGradient>
	<path class="st5" d="M73.9,39.5L36.9,54.1c0,0-2.1,0.6-2.8-1.5c-0.7-2.1,1.2-3,1.2-3l16.2-7c0,0,1.4-1.1,0.7-2.8
		c-0.7-1.7-2.5-1-2.5-1l-24,10.4c-0.1,0.7-0.1,1.5-0.1,2.2c0,4.1,1,8,2.7,11.5l26-10.7c0,0,2.2-0.6,3.2,1.1c1,1.8-1,3.7-1,3.7
		L31,67.3c0.9,1.1,1.9,2.2,2.9,3.1l35.5-13.8c0,0,2.5-0.3,3.1,1.7c0.6,2-1.3,3.6-1.3,3.6l-18.4,7.7c0,0-1.8,1-1.2,3
		c0.6,2,2.6,1.2,2.6,1.2l14.2-5.6c0,0,1.1-0.4,2,0.2c4.1-4.5,6.6-10.6,6.6-17.2C76.9,47.1,75.8,43,73.9,39.5z"/>
	<path class="st6" d="M49.3,32.3c0.5,1.8,2.4,1.1,2.4,1.1l11.7-4.5c-1.6-0.9-3.3-1.6-5.1-2.1L50.7,30C50.7,30,48.6,30.7,49.3,32.3z"
		/>
</g>
<path class="st7" d="M75.5,39.7c0,0,0.1,0.4,0.3,0.8c0.2,0.5,0.4,1.2,0.4,1.2c10.3,2,17.2,5.1,17.2,8.5c0,5.8-19.6,10.7-42.9,10.7
	S7.7,56.1,7.7,50.3c0-3.6,7.4-6.8,18.6-8.8c0-0.1,0.2-0.7,0.3-1c0.1-0.3,0.4-1,0.4-1.1C13.6,41.7,4.8,45.7,4.8,50.3
	c0,7,20.1,12.5,45.8,12.5s45.8-5.5,45.8-12.5C96.3,45.8,88.1,42,75.5,39.7z"/>
</svg>
