<svg id="图层_1" data-name="图层 1" xmlns="http://www.w3.org/2000/svg" viewBox="0 0 112 146"><defs><style>.cls-1{fill:#ffd0b4;}.cls-2{fill:#1d99d8;}.cls-3{fill:#d4efff;}.cls-4{fill:#a2d1f4;}.cls-5{fill:#1a92c1;}.cls-6{fill:#f9d2c2;}.cls-7{fill:#dda08e;}.cls-8{fill:#ffe2d4;}.cls-9{fill:#fcd3c4;}.cls-10{fill:#423f43;}.cls-11{fill:#ef9586;}.cls-12{fill:#d1c5c5;}.cls-13{opacity:0.2;}.cls-14{fill:#fff;}</style></defs><title>Boy</title><path class="cls-1" d="M78.62,106.6l-4.86-2.54a4.08,4.08,0,0,1-2.2-3.62V89H48.24v11.46a4.08,4.08,0,0,1-2.2,3.62l-4.85,2.54L59,116.26Z"/><path class="cls-1" d="M59.9,113.85a18.59,18.59,0,0,0,17.79-13.23L71.6,97.86a11.82,11.82,0,0,1-23.4,0l-6.09,2.76A18.59,18.59,0,0,0,59.9,113.85Z"/><path class="cls-2" d="M97.38,109.54l-19.69-8.92a18.58,18.58,0,0,1-35.58,0l-19.68,8.92a19.13,19.13,0,0,0-9.53,16.54v18h94v-18A19.14,19.14,0,0,0,97.38,109.54Z"/><polygon class="cls-3" points="40.46 101.37 33.98 104.31 33.98 127.39 40.46 127.39 40.46 101.37"/><polygon class="cls-3" points="85.77 104.28 79.29 101.35 79.29 127.39 85.77 127.39 85.77 104.28"/><polygon class="cls-3" points="83.47 123.15 59.9 123.15 36.33 123.15 29.97 134.62 29.97 144.04 89.83 144.04 89.83 134.62 83.47 123.15"/><polygon class="cls-4" points="79.99 127.34 60.18 127.34 40.38 127.34 35.03 136.09 35.03 144.04 85.33 144.04 85.33 136.09 79.99 127.34"/><ellipse class="cls-5" cx="30.62" cy="64.6" rx="25.82" ry="22.19" transform="translate(-21.89 16.09) rotate(-21.91)"/><path class="cls-6" d="M26.29,57.8s-12.68-2.41-8.58,10.66c1.9,6,7.34,7.68,12.65,7.7C36.54,76.19,26.29,57.8,26.29,57.8Z"/><path class="cls-7" d="M25.29,63.89a3.13,3.13,0,0,1,1.22.28l.51.21.5-1.11a10,10,0,0,0-2.84-1.06,4.8,4.8,0,0,0-1.85.16,3.1,3.1,0,0,0-1.95,3.12,4.63,4.63,0,0,0,1.4,3.33A7,7,0,0,0,26,70.71l.43,0c1.31,0,2.56-.82,2.57-1.65a1.22,1.22,0,0,0-.41-.81,1.18,1.18,0,0,0-.8-.41,1.23,1.23,0,0,0-.64.2l-.08.07a2.1,2.1,0,0,1-1.73.58,2.22,2.22,0,0,1-2.22-2.51,2.42,2.42,0,0,1,.6-1.74A2.37,2.37,0,0,1,25.29,63.89Z"/><path class="cls-6" d="M93.53,57.91s12.69-2.37,8.55,10.69c-1.92,6-7.36,7.66-12.67,7.66C83.22,76.27,93.53,57.91,93.53,57.91Z"/><path class="cls-7" d="M94.51,64a3.13,3.13,0,0,0-1.22.28l-.51.21-.5-1.11a9.76,9.76,0,0,1,2.85-1.05,4.8,4.8,0,0,1,1.85.16,3.11,3.11,0,0,1,1.94,3.13A4.67,4.67,0,0,1,97.5,69a6.88,6.88,0,0,1-3.7,1.87l-.43,0c-1.31,0-2.56-.83-2.56-1.66A1.43,1.43,0,0,1,92,68a1.18,1.18,0,0,1,.64.21l.08.06a2,2,0,0,0,1.72.59,2.21,2.21,0,0,0,2.23-2.5,2.38,2.38,0,0,0-.59-1.74A2.34,2.34,0,0,0,94.51,64Z"/><ellipse class="cls-8" cx="59.9" cy="57.63" rx="35.8" ry="34.55" transform="translate(0.95 116.23) rotate(-88.72)"/><ellipse class="cls-9" cx="39.61" cy="74.81" rx="6" ry="4"/><ellipse class="cls-9" cx="80.19" cy="74.81" rx="6" ry="4"/><circle class="cls-10" cx="44.16" cy="63.47" r="3.62"/><path class="cls-10" d="M49.66,54C43.25,50.46,36.92,55.76,37,56.08c2.81-.14,3.4-1.12,12.17.3a.5.5,0,0,0,.13,0,1.23,1.23,0,0,0,1.23-1.23C50.51,54.65,49.67,54,49.66,54Z"/><circle class="cls-10" cx="75.62" cy="63.52" r="3.62"/><path class="cls-10" d="M70.15,54c6.43-3.51,12.73,1.81,12.67,2.12C80,56,79.43,55,70.66,56.42l-.14,0a1.22,1.22,0,0,1-1.22-1.22C69.3,54.68,70.13,54,70.15,54Z"/><path class="cls-11" d="M53.86,75.37c0,4.06,2.71,7.35,6,7.36s6-3.28,6-7.34Z"/><path class="cls-12" d="M59.91,66.56a2.52,2.52,0,0,0-2.53,2.52,11.3,11.3,0,0,1,2.48-.79,12,12,0,0,1,2.56.79A2.51,2.51,0,0,0,59.91,66.56Z"/><path class="cls-10" d="M92.85,32.45l-.2.27C88.11,23.78,78.05,10.35,58,8.38,31.18,5.75,24.78,32.94,23.63,39.55l-.22-.08s-.91,13.07,2,18.2c.08.82,4.58-4.69,4.94-5.43,1.86-3.87,1.54-9.9,1.54-9.9l-.34-.11c4.53-1.52,10.59-2.39,17.18-2.84l-.08,3.84,3.81-.14L52,45.25a.2.2,0,0,0,.25.23l5.1-1.35,0,2.83s11.44-.69,14.5-7.79c6.78.23,12.91.65,17.27,1a45.63,45.63,0,0,1,3.39,8.9c.61,2.37,1.93,9.5,1.93,9.5s.33-1.22,3-.75A37.78,37.78,0,0,0,92.85,32.45Z"/><path class="cls-2" d="M96.93,23.06c-3-4.13-15-18.54-36.29-19.92h-.28C39,4.45,27,18.82,24,22.94a4,4,0,0,0-.77,2.36l0,22a87.34,87.34,0,0,1,37.24-8A87.42,87.42,0,0,1,97.66,47.4l0-22A4,4,0,0,0,96.93,23.06ZM70.33,36.91s-7-1.17-9.4-1.19-9.73,1.16-9.73,1.16V34.8a9.05,9.05,0,0,1,9.08-9h1a9.07,9.07,0,0,1,9,9.08Z"/><g class="cls-13"><rect class="cls-14" x="27.58" y="19.71" width="1.01" height="1.01" transform="translate(-1.26 38.55) rotate(-67.75)"/><path class="cls-14" d="M48,28.89l-2-.8.39-.93,2,.8ZM44,27.29l-2-.8.38-.94,2,.81Zm-3.92-1.61-2-.8.38-.93,2,.8Zm-3.92-1.6-2-.8.38-.93,2,.8Zm-3.92-1.61-2-.8.38-.93,2,.8Z"/><rect class="cls-14" x="50.08" y="28.92" width="1.01" height="1.01" transform="translate(4.2 65.09) rotate(-67.75)"/></g><g class="cls-13"><rect class="cls-14" x="92.14" y="19.82" width="1.01" height="1.01" transform="translate(-0.85 36.28) rotate(-22.06)"/><path class="cls-14" d="M72.73,28.93,72.35,28l2-.8.37.94Zm3.93-1.59-.38-.93,2-.8.38.94Zm3.92-1.59-.37-.93,2-.8.38.93Zm3.93-1.59-.38-.94,2-.79.38.93Zm3.93-1.59-.38-.94,2-.79.38.93Z"/><rect class="cls-14" x="69.61" y="28.95" width="1.01" height="1.01" transform="translate(-5.93 28.49) rotate(-22.06)"/></g><g class="cls-13"><rect class="cls-14" x="60.13" y="3.96" width="1.01" height="1.01" transform="translate(56.08 65.09) rotate(-89.91)"/><path class="cls-14" d="M61.11,21.51h-1V19.44h1Zm0-4.13h-1V15.31h1Zm0-4.14h-1V11.17h1Zm0-4.14h-1V7h1Z"/><rect class="cls-14" x="60.1" y="23.58" width="1.01" height="1.01" transform="translate(36.42 84.65) rotate(-89.91)"/></g></svg>