<svg id="图层_1" data-name="图层 1" xmlns="http://www.w3.org/2000/svg" viewBox="0 0 112 146"><defs><style>.cls-1{fill:#1d99d8;}.cls-2{fill:#ffd0b4;}.cls-3{fill:#d4efff;}.cls-4{fill:#088ab2;}.cls-5{fill:#f9d2c2;}.cls-6{fill:#dda08e;}.cls-7{fill:#ffe2d4;}.cls-8{fill:#423f43;}.cls-9{fill:#ef9586;}.cls-10{fill:#d1c5c5;}.cls-11{fill:#fcd3c4;}</style></defs><title>Boy</title><path class="cls-1" d="M93.65,114.16,56.44,94.73l-.27.14-.27-.14L18.69,114.16A19.13,19.13,0,0,0,9.17,130.7v14.78h94V130.7A19.13,19.13,0,0,0,93.65,114.16Z"/><path class="cls-2" d="M74.61,104.22l-4.79-2.5a4,4,0,0,1-2.16-3.57V87.6h-23V98.15a4,4,0,0,1-2.16,3.57l-4.79,2.5,18.17,21Z"/><polygon class="cls-3" points="68.68 100.88 56.17 118.88 43.66 100.88 34.15 106.09 47.93 145.48 64.41 145.48 78.19 106.09 68.68 100.88"/><path class="cls-4" d="M41.68,125.59c-.36-.2-3.42-10,1.61-13.72,0,0,5.09-.49,10.64,6.12l-.14,4.31S48.19,127.09,41.68,125.59Z"/><path class="cls-4" d="M70.66,125.48c.36-.19,3.42-10-1.61-13.72,0,0-5.09-.49-10.64,6.12l.14,4.31S64.15,127,70.66,125.48Z"/><path class="cls-4" d="M59.11,121.51a1.64,1.64,0,0,1-1.64,1.65H55.08a2,2,0,0,1-1.95-2V118.8a1.64,1.64,0,0,1,1.62-1.64s1.12.27,1.5.3a6.73,6.73,0,0,0,1.61-.3,1,1,0,0,1,1.22,1Z"/><path class="cls-5" d="M22.63,61.1S10,58.71,14.08,71.75c1.9,6,7.34,7.65,12.63,7.66C32.88,79.43,22.63,61.1,22.63,61.1Z"/><path class="cls-6" d="M21.64,67.18a3.17,3.17,0,0,1,1.22.27l.51.21.49-1.11a9.91,9.91,0,0,0-2.83-1,4.78,4.78,0,0,0-1.85.15,3.1,3.1,0,0,0-1.94,3.12,4.58,4.58,0,0,0,1.41,3.32A6.88,6.88,0,0,0,22.34,74l.42,0c1.32,0,2.56-.82,2.57-1.65a1.22,1.22,0,0,0-.41-.81,1.18,1.18,0,0,0-.8-.41,1.23,1.23,0,0,0-.64.2l-.08.07a2.08,2.08,0,0,1-1.72.58,2.2,2.2,0,0,1-2.22-2.49,2.36,2.36,0,0,1,.59-1.74A2.33,2.33,0,0,1,21.64,67.18Z"/><path class="cls-5" d="M89.71,61.1s12.66-2.39,8.55,10.65c-1.9,6-7.34,7.65-12.63,7.66C79.46,79.43,89.71,61.1,89.71,61.1Z"/><path class="cls-6" d="M90.7,67.18a3.17,3.17,0,0,0-1.22.27l-.51.21-.49-1.11a9.91,9.91,0,0,1,2.83-1,4.78,4.78,0,0,1,1.85.15,3.1,3.1,0,0,1,1.94,3.12,4.61,4.61,0,0,1-1.4,3.32A6.94,6.94,0,0,1,90,74l-.42,0C88.26,74,87,73.19,87,72.36a1.22,1.22,0,0,1,.41-.81,1.18,1.18,0,0,1,.8-.41,1.23,1.23,0,0,1,.64.2l.08.07a2.08,2.08,0,0,0,1.72.58,2.2,2.2,0,0,0,2.22-2.49,2.36,2.36,0,0,0-.59-1.74A2.32,2.32,0,0,0,90.7,67.18Z"/><ellipse class="cls-7" cx="56.17" cy="60.62" rx="35.72" ry="34.48" transform="translate(-5.6 115.53) rotate(-88.82)"/><circle class="cls-8" cx="40.48" cy="66.72" r="3.61"/><path class="cls-8" d="M46,57.27c-6.41-3.52-12.71,1.78-12.65,2.09,2.8-.14,3.39-1.11,12.14.29l.13,0a1.22,1.22,0,0,0,1.23-1.22C46.8,57.92,46,57.28,46,57.27Z"/><circle class="cls-8" cx="71.87" cy="66.72" r="3.61"/><path class="cls-8" d="M66.39,57.27C72.8,53.75,79.1,59.05,79,59.36c-2.8-.14-3.39-1.11-12.14.29l-.13,0a1.22,1.22,0,0,1-1.23-1.22C65.54,57.92,66.38,57.28,66.39,57.27Z"/><path class="cls-9" d="M50.14,78.59c0,4,2.72,7.32,6,7.32s6-3.27,6-7.32Z"/><path class="cls-10" d="M56.17,69.79a2.51,2.51,0,0,0-2.51,2.51,11.18,11.18,0,0,1,2.47-.79,12,12,0,0,1,2.55.79A2.51,2.51,0,0,0,56.17,69.79Z"/><path class="cls-8" d="M23.51,62.52s2.06-13.28,1.85-17.93c0,0,13.28-3.37,14.74-15.57,0,0,10.89,18.5,27.73,6.56,0,0,2.45,7.07,11.43,7,0,0,5.67,13.33,11.2,18.7,0,0,1.09-1.25,5.4.31,0,0,7.66-33.81-10.14-49.36,0,0-20.3-15.55-41.34-7L41,0,39.81,7.15,33.74,4.24S37.56,8.15,38,9.73c0,0-16.55.68-22.72,20.33C12,40.36,13.54,55.53,16.32,61.44,22.1,59.24,23.51,62.52,23.51,62.52Z"/><ellipse class="cls-11" cx="36.2" cy="79.27" rx="5.99" ry="3.99"/><ellipse class="cls-11" cx="76.69" cy="79.27" rx="5.99" ry="3.99"/></svg>