<svg id="图层_1" data-name="图层 1" xmlns="http://www.w3.org/2000/svg" viewBox="0 0 112 146"><defs><style>.cls-1{fill:#ffd0b4;}.cls-2{fill:#1d99d8;}.cls-3{fill:#d4efff;}.cls-4{fill:#a2d1f4;}.cls-5{fill:#f9d2c2;}.cls-6{fill:#dda08e;}.cls-7{fill:#ffe2d4;}.cls-8{fill:#423f43;}.cls-9{fill:#ef9586;}.cls-10{fill:#d1c5c5;}.cls-11{fill:#994734;}.cls-12{fill:#fcd3c4;}</style></defs><title>Boy</title><path class="cls-1" d="M75.52,106.43l-4.85-2.53a4.11,4.11,0,0,1-2.2-3.63V88.81H45.14v11.46A4.1,4.1,0,0,1,43,103.9l-4.86,2.53,17.84,9.66Z"/><path class="cls-1" d="M56.81,113.68A18.58,18.58,0,0,0,74.6,100.46L68.51,97.7a11.82,11.82,0,0,1-23.4,0L39,100.46A18.58,18.58,0,0,0,56.81,113.68Z"/><path class="cls-2" d="M94.28,109.38,74.6,100.46a18.58,18.58,0,0,1-35.58,0l-19.69,8.92a19.13,19.13,0,0,0-9.52,16.54v18h94v-18A19.11,19.11,0,0,0,94.28,109.38Z"/><polygon class="cls-3" points="37.37 101.2 30.89 104.14 30.89 127.22 37.37 127.22 37.37 101.2"/><polygon class="cls-3" points="82.68 104.12 76.2 101.18 76.2 127.22 82.68 127.22 82.68 104.12"/><polygon class="cls-3" points="80.38 122.98 56.81 122.98 33.24 122.98 26.88 134.46 26.88 143.87 86.74 143.87 86.74 134.46 80.38 122.98"/><polygon class="cls-4" points="76.9 127.17 57.09 127.17 37.28 127.17 31.94 135.93 31.94 143.87 82.24 143.87 82.24 135.93 76.9 127.17"/><path class="cls-5" d="M23.19,55.33S10.5,52.94,14.63,66c1.9,6,7.34,7.67,12.65,7.68C33.47,73.7,23.19,55.33,23.19,55.33Z"/><path class="cls-6" d="M22.2,61.42a3.13,3.13,0,0,1,1.22.28l.51.21.5-1.11a9.76,9.76,0,0,0-2.85-1,4.73,4.73,0,0,0-1.84.15A3.11,3.11,0,0,0,17.79,63a4.62,4.62,0,0,0,1.41,3.33,6.83,6.83,0,0,0,3.7,1.88l.42,0c1.32,0,2.57-.82,2.57-1.66a1.19,1.19,0,0,0-.4-.8,1.21,1.21,0,0,0-.8-.42,1.16,1.16,0,0,0-.64.21l-.09.07a2.08,2.08,0,0,1-1.72.58A2.21,2.21,0,0,1,20,63.75a2.41,2.41,0,0,1,.6-1.74A2.34,2.34,0,0,1,22.2,61.42Z"/><path class="cls-5" d="M90.43,55.33S103.12,52.94,99,66c-1.9,6-7.35,7.67-12.66,7.68C80.15,73.7,90.43,55.33,90.43,55.33Z"/><path class="cls-6" d="M91.42,61.42a3.19,3.19,0,0,0-1.23.28l-.5.21-.5-1.11a9.7,9.7,0,0,1,2.84-1,4.78,4.78,0,0,1,1.85.15,3.12,3.12,0,0,1,2,3.13,4.66,4.66,0,0,1-1.41,3.33,6.87,6.87,0,0,1-3.7,1.88l-.43,0c-1.31,0-2.56-.82-2.57-1.66a1.2,1.2,0,0,1,.41-.8,1.19,1.19,0,0,1,.8-.42,1.16,1.16,0,0,1,.64.21l.08.07a2.1,2.1,0,0,0,1.73.58,2.2,2.2,0,0,0,2.22-2.5,2.06,2.06,0,0,0-2.18-2.33Z"/><ellipse class="cls-7" cx="56.81" cy="55.11" rx="35.8" ry="34.55" transform="translate(0.54 110.76) rotate(-88.82)"/><circle class="cls-8" cx="41.08" cy="60.97" r="3.62"/><path class="cls-8" d="M46.57,51.49c-6.43-3.53-12.74,1.78-12.68,2.1,2.81-.15,3.39-1.12,12.16.29l.13,0a1.23,1.23,0,0,0,1.23-1.23C47.41,52.14,46.58,51.5,46.57,51.49Z"/><circle class="cls-8" cx="72.54" cy="60.97" r="3.62"/><path class="cls-8" d="M67.05,51.49c6.42-3.53,12.74,1.78,12.68,2.1-2.81-.15-3.4-1.12-12.17.29l-.13,0a1.23,1.23,0,0,1-1.23-1.23C66.2,52.14,67,51.5,67.05,51.49Z"/><path class="cls-9" d="M50.77,72.86c0,4.06,2.72,7.34,6,7.34s6-3.28,6-7.34Z"/><path class="cls-10" d="M56.81,64a2.52,2.52,0,0,0-2.52,2.52,11.77,11.77,0,0,1,2.48-.8,12,12,0,0,1,2.56.8A2.52,2.52,0,0,0,56.81,64Z"/><polygon class="cls-11" points="42.45 97.31 42.46 97.31 42.46 97.31 42.45 97.31"/><polygon class="cls-11" points="42.45 97.31 42.46 97.31 42.46 97.31 42.45 97.31"/><path class="cls-8" d="M23.73,55.48c.8-4.72,4.89-24.71,17.44-30.07a.75.75,0,0,1,.55,0l1.37.57a.7.7,0,0,0,1-.61l.07-1.51L45.05,25a.7.7,0,0,0,1.24-.33l.06-.42a.7.7,0,0,1,1.11-.47l1.36,1a.69.69,0,0,0,1.1-.41l.17-.81a.69.69,0,0,1,1.12-.4l1.35,1.1a.7.7,0,0,0,1.1-.3l.05-.13A.69.69,0,0,1,55,23.75h0a.7.7,0,0,0,1.2,0l.5-.88a.7.7,0,0,1,1.24,0l.38.82a.7.7,0,0,0,1.23.07l.4-.67a.7.7,0,0,1,1.23.06l.21.45a.7.7,0,0,0,1.26,0l.34-.68a.71.71,0,0,1,.94-.31l2.76,1.38a.7.7,0,0,0,.71,0l.49-.34a.71.71,0,0,1,1,.15l1.47,1.92.31-1.63,3.25,2.78a.77.77,0,0,0,.44.17l2.13.05a.62.62,0,0,1,.43.16c1.45,1.22,11,9.84,13.76,27.46a.7.7,0,0,0,.88.57c1.15-.33,3.21-1.14,3.61-2.75,0,0,4.25-34.38-12.5-45.88l-.69,1.38L80.53,5.86a.7.7,0,0,0-1.18,0L79,6.41a.68.68,0,0,1-.49.31c-.9.13-3.45.42-4.12-.3A19.39,19.39,0,0,1,72.54,3.6a.7.7,0,0,0-1.06-.19l-.93.8a.69.69,0,0,1-.93,0l-1.5-1.41a.7.7,0,0,0-.4-.18,39.16,39.16,0,0,0-7.52-.1c-1.82.18-2.41.7-2.55,1.17a.72.72,0,0,1-1,.4l-3.94-1.7a.69.69,0,0,0-.58,0l-1.8.87-.21.06c-1.09.13-9.75,1.1-10.39-.07-.55-1-1.48,1.58-1.85,2.7a.68.68,0,0,1-.67.47l-2,0a.7.7,0,0,0-.68.49l-.3.91a.7.7,0,0,1-.73.48l-.83-.09a.72.72,0,0,0-.73.47l-.35,1a.7.7,0,0,1-1,.37l-2-1.13a.7.7,0,0,0-.86.13A37.82,37.82,0,0,0,18.82,28.8c-2.24,19.71,1.81,25.49,3.77,27.1A.7.7,0,0,0,23.73,55.48Z"/><ellipse class="cls-12" cx="36.52" cy="72.31" rx="6" ry="4"/><ellipse class="cls-12" cx="77.1" cy="72.31" rx="6" ry="4"/></svg>