<svg id="图层_1" data-name="图层 1" xmlns="http://www.w3.org/2000/svg" viewBox="0 0 112 146"><defs><style>.cls-1{fill:#1d99d8;}.cls-2{fill:#ffd0b4;}.cls-3{fill:#d4efff;}.cls-4{fill:#088ab2;}.cls-5{fill:#f9d2c2;}.cls-6{fill:#dda08e;}.cls-7{fill:#ffe2d4;}.cls-8{fill:#423f43;}.cls-9{fill:#ef9586;}.cls-10{fill:#d1c5c5;}.cls-11{fill:#fcd3c4;}.cls-12{fill:#332e2c;}</style></defs><title>Boy</title><path class="cls-1" d="M94.15,111.12,56.94,91.69l-.27.14-.26-.14L19.2,111.12a19.11,19.11,0,0,0-9.53,16.54v16.86h94V127.66A19.1,19.1,0,0,0,94.15,111.12Z"/><path class="cls-2" d="M75.11,101.18l-4.78-2.5a4,4,0,0,1-2.16-3.57V84.56h-23V95.11A4,4,0,0,1,43,98.68l-4.78,2.5,18.16,21Z"/><polygon class="cls-3" points="69.19 97.78 56.67 115.78 44.16 97.78 34.65 103 48.43 144.53 64.92 144.52 78.7 103 69.19 97.78"/><path class="cls-4" d="M42.18,122.55c-.35-.19-3.42-10,1.62-13.72,0,0,5.09-.49,10.63,6.12l-.14,4.31S48.7,124.05,42.18,122.55Z"/><path class="cls-4" d="M71.17,122.44c.35-.19,3.42-10-1.62-13.72,0,0-5.09-.49-10.63,6.12l.13,4.31S64.65,123.94,71.17,122.44Z"/><path class="cls-4" d="M59.62,118.47A1.64,1.64,0,0,1,58,120.12h-2.4a2,2,0,0,1-1.94-2v-2.39a1.63,1.63,0,0,1,1.62-1.64,13.23,13.23,0,0,0,1.5.3,6.34,6.34,0,0,0,1.61-.3,1,1,0,0,1,1.22.95Z"/><path class="cls-5" d="M22.65,56S9.81,53.52,14,66.75c1.93,6.11,7.44,7.76,12.81,7.77C33.05,74.54,22.65,56,22.65,56Z"/><path class="cls-6" d="M21.65,62.11a3.25,3.25,0,0,1,1.24.28l.51.22.5-1.13A10.22,10.22,0,0,0,21,60.41a4.87,4.87,0,0,0-1.87.16,3.17,3.17,0,0,0-2,3.17,4.73,4.73,0,0,0,1.43,3.37A7,7,0,0,0,22.36,69l.43,0c1.33,0,2.59-.83,2.6-1.68a1.48,1.48,0,0,0-1.23-1.23,1.16,1.16,0,0,0-.64.21l-.09.06a2.11,2.11,0,0,1-1.74.6,2.25,2.25,0,0,1-2.26-2.53A2.43,2.43,0,0,1,20,62.7,2.38,2.38,0,0,1,21.65,62.11Z"/><path class="cls-5" d="M90.7,56s12.84-2.43,8.67,10.8c-1.93,6.11-7.44,7.76-12.81,7.77C80.3,74.54,90.7,56,90.7,56Z"/><path class="cls-6" d="M91.7,62.11a3.25,3.25,0,0,0-1.24.28l-.51.22-.5-1.13a10.22,10.22,0,0,1,2.87-1.07,4.87,4.87,0,0,1,1.87.16,3.17,3.17,0,0,1,2,3.17,4.73,4.73,0,0,1-1.43,3.37A7,7,0,0,1,91,69l-.43,0c-1.33,0-2.6-.83-2.6-1.68a1.48,1.48,0,0,1,1.22-1.23,1.19,1.19,0,0,1,.65.21l.09.06a2.11,2.11,0,0,0,1.74.6,2.25,2.25,0,0,0,2.26-2.53,2.43,2.43,0,0,0-.61-1.77A2.38,2.38,0,0,0,91.7,62.11Z"/><ellipse class="cls-7" cx="56.67" cy="55.46" rx="36.24" ry="34.97" transform="translate(0.05 110.98) rotate(-88.82)"/><circle class="cls-8" cx="40.75" cy="61.65" r="3.66"/><path class="cls-8" d="M46.31,52.06c-6.5-3.57-12.9,1.8-12.83,2.12,2.84-.15,3.43-1.13,12.31.29l.13,0a1.25,1.25,0,0,0,1.25-1.24C47.17,52.72,46.32,52.07,46.31,52.06Z"/><circle class="cls-8" cx="72.6" cy="61.65" r="3.66"/><path class="cls-8" d="M67,52.06c6.5-3.57,12.89,1.8,12.83,2.12-2.84-.15-3.44-1.13-12.31.29l-.13,0a1.25,1.25,0,0,1-1.25-1.24C66.18,52.72,67,52.07,67,52.06Z"/><path class="cls-9" d="M50.56,73.68c0,4.11,2.76,7.44,6.11,7.44s6.09-3.33,6.12-7.44Z"/><path class="cls-10" d="M56.67,64.76a2.55,2.55,0,0,0-2.54,2.55,11.85,11.85,0,0,1,2.51-.81,12,12,0,0,1,2.58.81A2.55,2.55,0,0,0,56.67,64.76Z"/><ellipse class="cls-11" cx="36.11" cy="76.55" rx="6.07" ry="4.05"/><ellipse class="cls-11" cx="77.18" cy="76.55" rx="6.07" ry="4.05"/><path class="cls-8" d="M23.4,57.5s1.87-14,8.77-16.79c11.73-4.73,38.22-8.64,50.6-.88C86.41,42.46,91,50.76,90.7,56c0,0,3.71-1,6,.58,0,0,13.92-44.73-24.42-54.21,0,0-11.64-1.84-14,.82,0,0-26.44-7.87-39.34,16.13-4.3,8-7.51,13.27-2.72,37.38C16.17,56.65,22.51,54.06,23.4,57.5Z"/><path class="cls-12" d="M40.49,74.92A10.16,10.16,0,1,1,50.65,64.77,10.17,10.17,0,0,1,40.49,74.92Zm0-19.09a8.94,8.94,0,1,0,8.94,8.94A8.95,8.95,0,0,0,40.49,55.83Z"/><path class="cls-12" d="M72.88,74.92A10.16,10.16,0,1,1,83,64.77,10.16,10.16,0,0,1,72.88,74.92Zm0-19.09a8.94,8.94,0,1,0,8.94,8.94A8.95,8.95,0,0,0,72.88,55.83Z"/><path class="cls-12" d="M49.57,61.4l-.73-1C56.3,54.84,64.42,60,64.5,60l-.66,1C63.54,60.85,56.35,56.32,49.57,61.4Z"/></svg>