<svg id="图层_1" data-name="图层 1" xmlns="http://www.w3.org/2000/svg" viewBox="0 0 112 146"><defs><style>.cls-1{fill:#1d99d8;}.cls-2{fill:#a2d1f4;}.cls-3{fill:#d4efff;}.cls-4{fill:#ffd0b4;}.cls-5{fill:#f9d2c2;}.cls-6{fill:#dda08e;}.cls-7{fill:#ffe2d4;}.cls-8{fill:#423f43;}.cls-9{fill:#ef9586;}.cls-10{fill:#d1c5c5;}.cls-11{fill:#fcd3c4;}</style></defs><title>Boy</title><path class="cls-1" d="M93.64,114.67,56.43,95.24l-.27.14-.27-.14L18.68,114.67a19.13,19.13,0,0,0-9.52,16.54V146h94V131.21A19.13,19.13,0,0,0,93.64,114.67Z"/><rect class="cls-2" x="72.38" y="130.53" width="17.82" height="8.26" rx="2.38" ry="2.38"/><polygon class="cls-2" points="29.63 145.99 45.07 145.99 91.95 113.75 84.25 109.73 29.63 145.99"/><circle class="cls-3" cx="56.16" cy="112.04" r="4.03"/><path class="cls-4" d="M74.6,104.73l-4.79-2.5a4,4,0,0,1-2.16-3.57V88.11h-23V98.66a4,4,0,0,1-2.16,3.57l-4.79,2.5Z"/><path class="cls-3" d="M68.43,96,78,106.46l-9,6.17a4,4,0,0,1-4.92-.28L56.72,106a1.51,1.51,0,0,1,.21-2.35Z"/><path class="cls-3" d="M43.89,96l-9.54,10.42,9,6.17a4,4,0,0,0,4.92-.28L55.6,106a1.51,1.51,0,0,0-.21-2.35Z"/><path class="cls-5" d="M22.3,58.94S9.62,56.55,13.74,69.61c1.9,6,7.35,7.67,12.66,7.69C32.58,77.31,22.3,58.94,22.3,58.94Z"/><path class="cls-6" d="M21.31,65a3.19,3.19,0,0,1,1.23.28l.5.21.5-1.11a9.7,9.7,0,0,0-2.84-1,4.78,4.78,0,0,0-1.85.15,3.14,3.14,0,0,0-2,3.13A4.66,4.66,0,0,0,18.31,70,7,7,0,0,0,22,71.85a3.07,3.07,0,0,0,.42,0c1.32,0,2.57-.83,2.57-1.66A1.46,1.46,0,0,0,23.8,69a1.16,1.16,0,0,0-.64.21l-.08.06a2.1,2.1,0,0,1-1.73.59,2.21,2.21,0,0,1-2.22-2.5A2.06,2.06,0,0,1,21.31,65Z"/><path class="cls-5" d="M89.54,58.94s12.69-2.39,8.57,10.67c-1.91,6-7.35,7.67-12.66,7.69C79.26,77.31,89.54,58.94,89.54,58.94Z"/><path class="cls-6" d="M90.53,65a3.13,3.13,0,0,0-1.22.28l-.51.21-.5-1.11a9.76,9.76,0,0,1,2.85-1,4.73,4.73,0,0,1,1.84.15,3.11,3.11,0,0,1,2,3.13A4.62,4.62,0,0,1,93.53,70a6.94,6.94,0,0,1-3.7,1.88l-.42,0c-1.32,0-2.57-.83-2.57-1.66a1.21,1.21,0,0,1,.4-.81,1.24,1.24,0,0,1,.81-.41,1.15,1.15,0,0,1,.63.21l.09.06a2.08,2.08,0,0,0,1.72.59,2.22,2.22,0,0,0,2.23-2.5A2.07,2.07,0,0,0,90.53,65Z"/><ellipse class="cls-7" cx="55.92" cy="58.46" rx="35.8" ry="34.55" transform="translate(-3.68 113.17) rotate(-88.82)"/><circle class="cls-8" cx="40.19" cy="64.58" r="3.62"/><path class="cls-8" d="M45.68,55.1C39.26,51.57,32.94,56.88,33,57.2c2.81-.15,3.4-1.12,12.17.28a.5.5,0,0,0,.13,0,1.23,1.23,0,0,0,1.23-1.23C46.53,55.75,45.69,55.11,45.68,55.1Z"/><circle class="cls-8" cx="71.65" cy="64.58" r="3.62"/><path class="cls-8" d="M66.16,55.1c6.43-3.53,12.75,1.78,12.68,2.1-2.8-.15-3.39-1.12-12.16.28l-.13,0a1.23,1.23,0,0,1-1.23-1.23C65.32,55.75,66.15,55.11,66.16,55.1Z"/><path class="cls-9" d="M49.88,76.47c0,4.06,2.72,7.34,6,7.34s6-3.28,6-7.34Z"/><path class="cls-10" d="M55.92,67.65a2.51,2.51,0,0,0-2.52,2.51,11.3,11.3,0,0,1,2.48-.79,12,12,0,0,1,2.56.79A2.51,2.51,0,0,0,55.92,67.65Z"/><path class="cls-8" d="M22.28,59.57l.87-9.25S31,43.07,30.59,35c0,0,17.93-1.38,25.56-7,0,0-.5,4.31-2.19,6.37,0,0,4.69-1.56,6.5-5.12,0,0,.63,5.44-.44,8.37,0,0,6.94-4.75,8.44-7.5a6.76,6.76,0,0,1-.25,5.57s2.56-.32,6.5-3.57c0,0,13.76,11.43,15.7,27.74,0,0,1.58-1,4.89.2,0,0,7.55-4.63,7.29-8.37-.17-2.35-.54-3.39-3.94-8.57-1.78-2.7-.27-8.29,1.81-12.81,1-2.23-.06-5.19-4.69-8.62,0,0-6.81-3.5-10.18-7.94,0,0-2.69-16.5-23.82-13.19A114.64,114.64,0,0,0,45.46,7S33.71,5.39,27,7.7,13.15,16.2,16,27.07a10.64,10.64,0,0,1-2.37,10.69C9,42.7,7.21,49.57,15.46,57.76c0,0,1.25,1.07-.43,3C15,60.77,16.23,59,22.28,59.57Z"/><ellipse class="cls-11" cx="35.63" cy="77.01" rx="6" ry="4"/><ellipse class="cls-11" cx="76.21" cy="77.01" rx="6" ry="4"/></svg>