<?xml version="1.0" standalone="no"?><!DOCTYPE svg PUBLIC "-//W3C//DTD SVG 1.1//EN" "http://www.w3.org/Graphics/SVG/1.1/DTD/svg11.dtd"><svg t="1621090120682" class="icon" viewBox="0 0 1024 1024" version="1.1" xmlns="http://www.w3.org/2000/svg" p-id="2471" xmlns:xlink="http://www.w3.org/1999/xlink" width="200" height="200"><defs><style type="text/css"></style></defs><path d="M200.704 456.704c0 36.864 30.72 67.584 67.584 67.584 36.864 0 67.584-30.72 67.584-67.584 0-36.864-30.72-67.584-67.584-67.584-36.864 2.048-67.584 30.72-67.584 67.584z m0 0M446.464 456.704c0 36.864 30.72 67.584 67.584 67.584 36.864 0 67.584-30.72 67.584-67.584 0-36.864-30.72-67.584-67.584-67.584-36.864 2.048-67.584 30.72-67.584 67.584z m0 0M692.224 456.704c0 36.864 30.72 67.584 67.584 67.584 36.864 0 67.584-30.72 67.584-67.584 0-36.864-30.72-67.584-67.584-67.584-36.864 2.048-67.584 30.72-67.584 67.584z m0 0" fill="#707070" p-id="2472"></path><path d="M514.048 993.28c-16.384 0-34.816-6.144-45.056-18.432l-167.936-169.984H94.208c-45.056 0-79.872-36.864-79.872-79.872V182.272c0-63.488 51.2-114.688 114.688-114.688h770.048c63.488 0 114.688 51.2 114.688 114.688v542.72c0 45.056-36.864 79.872-79.872 79.872H718.848l-157.696 167.936c-12.288 12.288-28.672 18.432-47.104 20.48z m-149.504-239.616l149.504 149.504 155.648-165.888c12.288-10.24 28.672-16.384 45.056-16.384h217.088V182.272c0-18.432-14.336-32.768-32.768-32.768H129.024c-18.432 0-34.816 14.336-34.816 32.768v540.672h208.896c24.576 0 47.104 10.24 61.44 30.72z" fill="#707070" p-id="2473"></path></svg>