<?xml version="1.0" standalone="no"?><!DOCTYPE svg PUBLIC "-//W3C//DTD SVG 1.1//EN" "http://www.w3.org/Graphics/SVG/1.1/DTD/svg11.dtd"><svg t="1622045948823" class="icon" viewBox="0 0 1024 1024" version="1.1" xmlns="http://www.w3.org/2000/svg" p-id="2918" xmlns:xlink="http://www.w3.org/1999/xlink" width="128" height="128"><defs><style type="text/css"></style></defs><path d="M450.8 693.8c-8.2 0-16.4-3.1-22.6-9.4L250.9 507.1c-12.5-12.5-12.5-32.8 0-45.3s32.8-12.5 45.3 0l154.7 154.7 277-277c12.5-12.5 32.8-12.5 45.3 0s12.5 32.8 0 45.3L473.5 684.5c-6.3 6.2-14.5 9.3-22.7 9.3z" p-id="2919" fill="#1296db"></path><path d="M512 956.2c-59.9 0-118.1-11.7-172.9-34.9-52.9-22.4-100.4-54.4-141.2-95.2s-72.8-88.3-95.2-141.2c-23.2-54.8-34.9-113-34.9-172.9s11.7-118.1 34.9-172.9c22.4-52.9 54.4-100.4 95.2-141.2s88.3-72.8 141.2-95.2c54.8-23.2 113-34.9 172.9-34.9s118.1 11.7 172.9 34.9c52.9 22.4 100.4 54.4 141.2 95.2s72.8 88.3 95.2 141.2c23.2 54.8 34.9 113 34.9 172.9s-11.7 118.1-34.9 172.9c-22.4 52.9-54.4 100.4-95.2 141.2s-88.3 72.8-141.2 95.2c-54.8 23.1-113 34.9-172.9 34.9z m0-824.4c-101.5 0-197 39.5-268.8 111.3S131.8 410.5 131.8 512s39.5 197 111.3 268.8S410.5 892.2 512 892.2s197-39.5 268.8-111.3S892.2 613.5 892.2 512s-39.5-197-111.3-268.8S613.5 131.8 512 131.8z" p-id="2920" fill="#1296db"></path></svg>