<?xml version="1.0" standalone="no"?><!DOCTYPE svg PUBLIC "-//W3C//DTD SVG 1.1//EN" "http://www.w3.org/Graphics/SVG/1.1/DTD/svg11.dtd"><svg t="1621227178427" class="icon" viewBox="0 0 1024 1024" version="1.1" xmlns="http://www.w3.org/2000/svg" p-id="6833" xmlns:xlink="http://www.w3.org/1999/xlink" width="200" height="200"><defs><style type="text/css"></style></defs><path d="M512 1024a512 512 0 0 1-512-512 512 512 0 0 1 512-512 512 512 0 0 1 512 512c0 282.843429-229.156571 512-512 512zM512 72.411429C269.897143 72.411429 72.411429 269.897143 72.411429 512c0 242.102857 197.485714 439.588571 439.588571 439.588571 242.102857 0 439.588571-197.485714 439.588571-439.588571 0-242.102857-197.485714-439.588571-439.588571-439.588571zM549.376 512l198.290286-198.290286c9.801143-9.728 9.801143-26.038857 0-37.376l-1.609143-1.609143a25.526857 25.526857 0 0 0-35.766857 0L512 474.624 313.709714 276.333714a25.526857 25.526857 0 0 0-35.766857 0l-1.609143 1.609143c-9.801143 9.728-9.801143 26.038857 0 37.376L474.624 512 276.333714 710.290286c-9.728 9.728-9.728 26.038857 0 37.376l1.609143 1.682285a25.6 25.6 0 0 0 35.84 0L512 549.302857l198.290286 198.290286a25.526857 25.526857 0 0 0 35.766857 0l1.609143-1.609143c9.801143-9.728 9.801143-26.038857 0-37.376L549.376 512z" p-id="6834" fill="#bfbfbf"></path></svg>