<?xml version="1.0" standalone="no"?><!DOCTYPE svg PUBLIC "-//W3C//DTD SVG 1.1//EN" "http://www.w3.org/Graphics/SVG/1.1/DTD/svg11.dtd"><svg t="1621261981004" class="icon" viewBox="0 0 1024 1024" version="1.1" xmlns="http://www.w3.org/2000/svg" p-id="2908" xmlns:xlink="http://www.w3.org/1999/xlink" width="200" height="200"><defs><style type="text/css"></style></defs><path d="M704.844108 359.091892C704.844108 359.091892 292.255135 359.091892 292.255135 359.091892 292.255135 359.091892 292.255135 110.121514 292.255135 110.121514 292.255135 110.121514 374.009081 110.121514 374.009081 110.121514 387.459459 52.998919 439.434378 0 500.265514 0 561.096649 0 609.639784 52.998919 623.090162 110.121514 623.090162 110.121514 704.844108 110.121514 704.844108 110.121514 704.844108 110.121514 704.844108 359.949838 704.844108 359.949838 704.844108 359.949838 704.844108 359.091892 704.844108 359.091892 704.844108 359.091892 704.844108 359.091892 704.844108 359.091892 704.844108 359.091892 704.844108 359.091892 704.844108 359.091892ZM649.714162 303.519135C649.714162 303.519135 649.714162 163.950703 649.714162 163.950703 649.714162 163.950703 567.074595 163.950703 567.074595 163.950703 567.074595 163.950703 567.074595 129.660541 567.074595 129.660541 567.074595 91.163676 538.540973 54.687135 500.293189 54.687135 462.01773 54.687135 428.281081 91.163676 428.281081 129.660541 428.281081 129.660541 428.281081 163.950703 428.281081 163.950703 428.281081 163.950703 343.925622 163.950703 343.925622 163.950703 343.925622 163.950703 344.811243 303.519135 344.811243 303.519135 344.811243 303.519135 344.811243 303.519135 344.811243 303.519135 344.811243 303.519135 649.714162 303.519135 649.714162 303.519135ZM792.880432 1024C792.880432 1024 231.119568 1024 231.119568 1024 141.837838 1024 69.189189 950.880865 69.189189 861.073297 69.189189 861.073297 69.189189 295.908324 69.189189 295.908324 69.189189 206.100757 141.837838 137.299027 231.119568 137.299027 231.119568 137.299027 344.811243 137.299027 344.811243 137.299027 344.811243 137.299027 344.811243 303.519135 344.811243 303.519135 344.811243 303.519135 651.430054 303.519135 651.430054 303.519135 651.430054 303.519135 649.714162 137.299027 649.714162 137.299027 649.714162 137.299027 792.880432 137.299027 792.880432 137.299027 882.162162 137.299027 954.810811 206.100757 954.810811 295.908324 954.810811 295.908324 954.810811 861.073297 954.810811 861.073297 954.810811 950.880865 882.162162 1024 792.880432 1024 792.880432 1024 792.880432 1024 792.880432 1024 792.880432 1024 792.880432 1024 792.880432 1024ZM231.119568 192.844108C174.605838 192.844108 121.745297 239.090162 121.745297 295.908324 121.745297 295.908324 121.745297 861.073297 121.745297 861.073297 121.745297 917.891459 174.633514 968.454919 231.119568 968.454919 231.119568 968.454919 792.880432 968.454919 792.880432 968.454919 849.394162 968.454919 897.937297 917.891459 897.937297 861.073297 897.937297 861.073297 897.937297 295.908324 897.937297 295.908324 897.937297 239.090162 849.394162 192.844108 792.880432 192.844108 792.880432 192.844108 704.844108 192.844108 704.844108 192.844108 704.844108 192.844108 704.844108 359.091892 704.844108 359.091892 704.844108 359.091892 292.255135 359.091892 292.255135 359.091892 292.255135 359.091892 292.255135 192.844108 292.255135 192.844108 292.255135 192.844108 231.119568 192.844108 231.119568 192.844108 231.119568 192.844108 231.119568 192.844108 231.119568 192.844108 231.119568 192.844108 231.119568 192.844108 231.119568 192.844108ZM495.477622 824.541405C488.752432 824.541405 482.220973 822.244324 476.907243 817.954595 476.907243 817.954595 311.683459 685.000649 311.683459 685.000649 298.841946 674.649946 296.76627 655.830486 307.033946 642.905946 317.301622 630.009081 336.038054 627.90573 348.824216 638.228757 348.824216 638.228757 488.198919 750.39827 488.198919 750.39827 488.198919 750.39827 701.716757 412.810378 701.716757 412.810378 710.517622 398.889514 728.921946 394.793514 742.787459 403.622054 756.625297 412.505946 760.721297 431.020973 751.892757 444.941838 751.892757 444.941838 520.551784 810.648216 520.551784 810.648216 516.040649 817.843892 508.678919 822.714811 500.348541 824.098595 498.743351 824.403027 497.110486 824.541405 495.477622 824.541405 495.477622 824.541405 495.477622 824.541405 495.477622 824.541405 495.477622 824.541405 495.477622 824.541405 495.477622 824.541405Z" p-id="2909" fill="#515151"></path></svg>